<svg xmlns="http://www.w3.org/2000/svg" version="1.1" viewBox="0 0 200 200"><rect width="200" height="200" fill="url('#gradient')"></rect><defs><linearGradient id="gradient" gradientTransform="rotate(77 0.5 0.5)"><stop offset="0%" stop-color="#5382a1"></stop><stop offset="100%" stop-color="#007396"></stop></linearGradient></defs><g><g fill="#ed8b00" transform="matrix(2.5020481494789797,0,0,2.5020481494789797,30.878967864756262,117.54107590540681)" stroke="#ed8b00" stroke-width="0.45"><path d="M9.08-7.79L3.74-5.95L9.08-4.15L9.08-1.15L0.45-4.67L0.45-7.27L9.08-10.78L9.08-7.79ZM16.93-4.46L16.93-14.22L20.35-14.22L20.35-4.46Q20.35-3.11 19.72-2.04Q19.09-0.98 17.96-0.39Q16.84 0.20 15.45 0.20L15.45 0.20Q13.13 0.20 11.84-0.98Q10.55-2.15 10.55-4.30L10.55-4.30L13.98-4.30Q13.98-3.32 14.32-2.88Q14.66-2.44 15.45-2.44L15.45-2.44Q16.16-2.44 16.55-2.97Q16.93-3.51 16.93-4.46L16.93-4.46ZM31.46-8.30L31.46-5.66L25.94-5.66L25.94 0L22.51 0L22.51-14.22L32.02-14.22L32.02-11.57L25.94-11.57L25.94-8.30L31.46-8.30ZM36.43-14.22L38.75-9.49L41.07-14.22L44.99-14.22L41.02-7.17L45.10 0L41.14 0L38.75-4.81L36.36 0L32.41 0L36.48-7.17L32.52-14.22L36.43-14.22ZM46.22-4.13L51.53-5.98L46.22-7.78L46.22-10.77L54.80-7.26L54.80-4.66L46.22-1.14L46.22-4.13Z"></path></g></g></svg>